<mxfile host="app.diagrams.net" agent="Mozilla/5.0 (Windows NT 10.0; Win64; x64) AppleWebKit/537.36 (KHTML, like Gecko) Chrome/139.0.0.0 Safari/537.36" version="28.1.0">
  <diagram name="หน้า-2" id="ptErNj8uyzpEB_x87-Sw">
    <mxGraphModel dx="2108" dy="561" grid="1" gridSize="10" guides="1" tooltips="1" connect="1" arrows="1" fold="1" page="1" pageScale="1" pageWidth="827" pageHeight="1169" math="0" shadow="0">
      <root>
        <mxCell id="0" />
        <mxCell id="1" parent="0" />
        <mxCell id="KvN9QXKehdq3Z62jVVWH-1" value="" style="edgeStyle=orthogonalEdgeStyle;rounded=0;orthogonalLoop=1;jettySize=auto;html=1;" edge="1" parent="1">
          <mxGeometry relative="1" as="geometry">
            <mxPoint x="411.83" y="1524" as="sourcePoint" />
            <mxPoint x="411.83" y="1562" as="targetPoint" />
          </mxGeometry>
        </mxCell>
        <mxCell id="KvN9QXKehdq3Z62jVVWH-2" value="" style="edgeStyle=orthogonalEdgeStyle;rounded=0;orthogonalLoop=1;jettySize=auto;html=1;" edge="1" parent="1">
          <mxGeometry relative="1" as="geometry">
            <mxPoint x="504.73000000000025" y="1820" as="sourcePoint" />
            <mxPoint x="504.73" y="1848.9999999999998" as="targetPoint" />
            <Array as="points">
              <mxPoint x="504.73000000000025" y="1820" />
              <mxPoint x="504.73000000000025" y="1820" />
            </Array>
          </mxGeometry>
        </mxCell>
        <mxCell id="KvN9QXKehdq3Z62jVVWH-3" value="" style="edgeStyle=none;orthogonalLoop=1;jettySize=auto;html=1;rounded=0;" edge="1" parent="1">
          <mxGeometry width="100" relative="1" as="geometry">
            <mxPoint x="187" y="1376.83" as="sourcePoint" />
            <mxPoint x="157" y="1376.83" as="targetPoint" />
            <Array as="points" />
          </mxGeometry>
        </mxCell>
        <mxCell id="KvN9QXKehdq3Z62jVVWH-4" value="" style="edgeStyle=orthogonalEdgeStyle;rounded=0;orthogonalLoop=1;jettySize=auto;html=1;exitX=0.688;exitY=0.995;exitDx=0;exitDy=0;exitPerimeter=0;" edge="1" parent="1">
          <mxGeometry relative="1" as="geometry">
            <mxPoint x="412" y="71.8" as="sourcePoint" />
            <mxPoint x="414.43200000000024" y="93.00000000000004" as="targetPoint" />
          </mxGeometry>
        </mxCell>
        <mxCell id="KvN9QXKehdq3Z62jVVWH-5" value="" style="edgeStyle=none;orthogonalLoop=1;jettySize=auto;html=1;rounded=0;" edge="1" parent="1">
          <mxGeometry width="100" relative="1" as="geometry">
            <mxPoint x="280" y="1378.88" as="sourcePoint" />
            <mxPoint x="250" y="1378.88" as="targetPoint" />
            <Array as="points" />
          </mxGeometry>
        </mxCell>
        <mxCell id="KvN9QXKehdq3Z62jVVWH-6" value="" style="edgeStyle=orthogonalEdgeStyle;rounded=0;orthogonalLoop=1;jettySize=auto;html=1;" edge="1" parent="1" target="KvN9QXKehdq3Z62jVVWH-58">
          <mxGeometry relative="1" as="geometry">
            <mxPoint x="519.5" y="1021" as="sourcePoint" />
          </mxGeometry>
        </mxCell>
        <mxCell id="KvN9QXKehdq3Z62jVVWH-7" value="Start" style="ellipse;whiteSpace=wrap;html=1;" vertex="1" parent="1">
          <mxGeometry x="354" y="30" width="120" height="50" as="geometry" />
        </mxCell>
        <mxCell id="KvN9QXKehdq3Z62jVVWH-8" value="" style="edgeStyle=orthogonalEdgeStyle;rounded=0;orthogonalLoop=1;jettySize=auto;html=1;" edge="1" parent="1" source="KvN9QXKehdq3Z62jVVWH-9" target="KvN9QXKehdq3Z62jVVWH-11">
          <mxGeometry relative="1" as="geometry" />
        </mxCell>
        <mxCell id="KvN9QXKehdq3Z62jVVWH-9" value="แสดงข้อความยินดีต้อนรับ" style="whiteSpace=wrap;html=1;" vertex="1" parent="1">
          <mxGeometry x="283.5" y="120" width="261" height="40" as="geometry" />
        </mxCell>
        <mxCell id="KvN9QXKehdq3Z62jVVWH-10" value="" style="edgeStyle=orthogonalEdgeStyle;rounded=0;orthogonalLoop=1;jettySize=auto;html=1;" edge="1" parent="1" source="KvN9QXKehdq3Z62jVVWH-11">
          <mxGeometry relative="1" as="geometry">
            <mxPoint x="414" y="258" as="targetPoint" />
          </mxGeometry>
        </mxCell>
        <mxCell id="KvN9QXKehdq3Z62jVVWH-11" value="&lt;span style=&quot;background-color: transparent; color: light-dark(rgb(0, 0, 0), rgb(255, 255, 255));&quot;&gt;แสดงกฏกติกาการเล่น คะแนนเริ่มต้น = 100&amp;nbsp;&lt;/span&gt;&lt;div&gt;&lt;span style=&quot;background-color: transparent; color: light-dark(rgb(0, 0, 0), rgb(255, 255, 255));&quot;&gt;ทายตัวเลข 1- 100&lt;/span&gt;&lt;/div&gt;" style="whiteSpace=wrap;html=1;" vertex="1" parent="1">
          <mxGeometry x="283.5" y="191" width="261" height="40" as="geometry" />
        </mxCell>
        <mxCell id="KvN9QXKehdq3Z62jVVWH-12" value="" style="edgeStyle=orthogonalEdgeStyle;rounded=0;orthogonalLoop=1;jettySize=auto;html=1;" edge="1" parent="1" source="KvN9QXKehdq3Z62jVVWH-16" target="KvN9QXKehdq3Z62jVVWH-18">
          <mxGeometry relative="1" as="geometry" />
        </mxCell>
        <mxCell id="KvN9QXKehdq3Z62jVVWH-13" value="ใช่ ( ต้องการเล่น )" style="edgeLabel;html=1;align=center;verticalAlign=middle;resizable=0;points=[];" vertex="1" connectable="0" parent="KvN9QXKehdq3Z62jVVWH-12">
          <mxGeometry x="0.0544" y="-3" relative="1" as="geometry">
            <mxPoint x="8" as="offset" />
          </mxGeometry>
        </mxCell>
        <mxCell id="KvN9QXKehdq3Z62jVVWH-14" value="" style="edgeStyle=orthogonalEdgeStyle;rounded=0;orthogonalLoop=1;jettySize=auto;html=1;" edge="1" parent="1" source="KvN9QXKehdq3Z62jVVWH-16" target="KvN9QXKehdq3Z62jVVWH-20">
          <mxGeometry relative="1" as="geometry" />
        </mxCell>
        <mxCell id="KvN9QXKehdq3Z62jVVWH-15" value="ไม่ ( ไม่ต้องการเล่น )" style="edgeLabel;html=1;align=center;verticalAlign=middle;resizable=0;points=[];" vertex="1" connectable="0" parent="KvN9QXKehdq3Z62jVVWH-14">
          <mxGeometry x="-0.2429" y="3" relative="1" as="geometry">
            <mxPoint x="9" as="offset" />
          </mxGeometry>
        </mxCell>
        <mxCell id="KvN9QXKehdq3Z62jVVWH-16" value="สอบถามผู้เล่นว่าต้องการเล่นไหม" style="rhombus;whiteSpace=wrap;html=1;" vertex="1" parent="1">
          <mxGeometry x="319.5" y="260" width="185" height="80" as="geometry" />
        </mxCell>
        <mxCell id="KvN9QXKehdq3Z62jVVWH-17" value="" style="edgeStyle=orthogonalEdgeStyle;rounded=0;orthogonalLoop=1;jettySize=auto;html=1;" edge="1" parent="1">
          <mxGeometry relative="1" as="geometry">
            <mxPoint x="156" y="331" as="sourcePoint" />
            <mxPoint x="401" y="398" as="targetPoint" />
            <Array as="points">
              <mxPoint x="156" y="358" />
              <mxPoint x="401" y="358" />
            </Array>
          </mxGeometry>
        </mxCell>
        <mxCell id="KvN9QXKehdq3Z62jVVWH-18" value="กรอก 1" style="whiteSpace=wrap;html=1;" vertex="1" parent="1">
          <mxGeometry x="90" y="271" width="120" height="60" as="geometry" />
        </mxCell>
        <mxCell id="KvN9QXKehdq3Z62jVVWH-19" value="" style="edgeStyle=orthogonalEdgeStyle;rounded=0;orthogonalLoop=1;jettySize=auto;html=1;entryX=0.799;entryY=-0.083;entryDx=0;entryDy=0;entryPerimeter=0;exitX=0.5;exitY=1;exitDx=0;exitDy=0;" edge="1" parent="1">
          <mxGeometry relative="1" as="geometry">
            <mxPoint x="676" y="330" as="sourcePoint" />
            <mxPoint x="409.98" y="398.34000000000015" as="targetPoint" />
            <Array as="points">
              <mxPoint x="679" y="330" />
              <mxPoint x="679" y="358" />
              <mxPoint x="410" y="358" />
            </Array>
          </mxGeometry>
        </mxCell>
        <mxCell id="KvN9QXKehdq3Z62jVVWH-20" value="กรอก -1" style="whiteSpace=wrap;html=1;" vertex="1" parent="1">
          <mxGeometry x="620" y="270" width="120" height="60" as="geometry" />
        </mxCell>
        <mxCell id="KvN9QXKehdq3Z62jVVWH-21" value="" style="ellipse;whiteSpace=wrap;html=1;" vertex="1" parent="1">
          <mxGeometry x="395.5" y="395.94" width="20" height="20" as="geometry" />
        </mxCell>
        <mxCell id="KvN9QXKehdq3Z62jVVWH-22" value="Stop" style="ellipse;whiteSpace=wrap;html=1;" vertex="1" parent="1">
          <mxGeometry x="407.40999999999997" y="2198" width="120" height="50" as="geometry" />
        </mxCell>
        <mxCell id="KvN9QXKehdq3Z62jVVWH-23" value="" style="edgeStyle=orthogonalEdgeStyle;rounded=0;orthogonalLoop=1;jettySize=auto;html=1;fontFamily=Helvetica;fontSize=12;fontColor=default;" edge="1" parent="1" source="KvN9QXKehdq3Z62jVVWH-25">
          <mxGeometry relative="1" as="geometry">
            <mxPoint x="283.25" y="555.9926315789476" as="targetPoint" />
          </mxGeometry>
        </mxCell>
        <mxCell id="KvN9QXKehdq3Z62jVVWH-24" value="" style="edgeStyle=orthogonalEdgeStyle;rounded=0;orthogonalLoop=1;jettySize=auto;html=1;fontFamily=Helvetica;fontSize=12;fontColor=default;entryX=0.5;entryY=0;entryDx=0;entryDy=0;exitX=1;exitY=0.5;exitDx=0;exitDy=0;" edge="1" parent="1" source="KvN9QXKehdq3Z62jVVWH-25" target="KvN9QXKehdq3Z62jVVWH-30">
          <mxGeometry relative="1" as="geometry">
            <mxPoint x="525" y="555.94" as="targetPoint" />
          </mxGeometry>
        </mxCell>
        <mxCell id="KvN9QXKehdq3Z62jVVWH-25" value="ผู้เล่นกรอก 1 หรือ - 1 ใช่ไหม" style="rhombus;whiteSpace=wrap;html=1;" vertex="1" parent="1">
          <mxGeometry x="315.5" y="516.94" width="180" height="80" as="geometry" />
        </mxCell>
        <mxCell id="KvN9QXKehdq3Z62jVVWH-26" value="" style="edgeStyle=orthogonalEdgeStyle;rounded=0;orthogonalLoop=1;jettySize=auto;html=1;" edge="1" parent="1" source="KvN9QXKehdq3Z62jVVWH-38">
          <mxGeometry relative="1" as="geometry">
            <mxPoint x="231" y="626.94" as="sourcePoint" />
            <mxPoint x="395.5" y="407.94" as="targetPoint" />
            <Array as="points">
              <mxPoint x="231.5" y="407.94" />
            </Array>
          </mxGeometry>
        </mxCell>
        <mxCell id="KvN9QXKehdq3Z62jVVWH-27" value="ไม่&amp;nbsp;" style="text;html=1;align=center;verticalAlign=middle;resizable=0;points=[];autosize=1;strokeColor=none;fillColor=none;fontFamily=Helvetica;fontSize=12;fontColor=default;" vertex="1" parent="1">
          <mxGeometry x="291.5" y="525.94" width="40" height="30" as="geometry" />
        </mxCell>
        <mxCell id="KvN9QXKehdq3Z62jVVWH-28" value="" style="edgeStyle=orthogonalEdgeStyle;rounded=0;orthogonalLoop=1;jettySize=auto;html=1;fontFamily=Helvetica;fontSize=12;fontColor=default;" edge="1" parent="1">
          <mxGeometry relative="1" as="geometry">
            <Array as="points">
              <mxPoint x="725.5" y="618.94" />
            </Array>
            <mxPoint x="673.1176470588225" y="618.9988235294118" as="sourcePoint" />
            <mxPoint x="725.5" y="656.94" as="targetPoint" />
          </mxGeometry>
        </mxCell>
        <mxCell id="KvN9QXKehdq3Z62jVVWH-29" value="" style="edgeStyle=orthogonalEdgeStyle;rounded=0;orthogonalLoop=1;jettySize=auto;html=1;fontFamily=Helvetica;fontSize=12;fontColor=default;" edge="1" parent="1">
          <mxGeometry relative="1" as="geometry">
            <Array as="points">
              <mxPoint x="520.5" y="619.94" />
            </Array>
            <mxPoint x="573.882352941177" y="619.9988235294118" as="sourcePoint" />
            <mxPoint x="520.5" y="658.94" as="targetPoint" />
          </mxGeometry>
        </mxCell>
        <mxCell id="KvN9QXKehdq3Z62jVVWH-30" value="กรอก 1 หรือ - 1&amp;nbsp;" style="rhombus;whiteSpace=wrap;html=1;" vertex="1" parent="1">
          <mxGeometry x="531" y="579.94" width="180" height="80" as="geometry" />
        </mxCell>
        <mxCell id="KvN9QXKehdq3Z62jVVWH-31" value="" style="edgeStyle=orthogonalEdgeStyle;rounded=0;orthogonalLoop=1;jettySize=auto;html=1;" edge="1" parent="1" source="KvN9QXKehdq3Z62jVVWH-32" target="KvN9QXKehdq3Z62jVVWH-67">
          <mxGeometry relative="1" as="geometry" />
        </mxCell>
        <mxCell id="KvN9QXKehdq3Z62jVVWH-32" value="กรอก - 1&amp;nbsp;" style="whiteSpace=wrap;html=1;" vertex="1" parent="1">
          <mxGeometry x="668.5" y="657.94" width="120" height="60" as="geometry" />
        </mxCell>
        <mxCell id="KvN9QXKehdq3Z62jVVWH-33" value="" style="edgeStyle=orthogonalEdgeStyle;rounded=0;orthogonalLoop=1;jettySize=auto;html=1;" edge="1" parent="1" source="KvN9QXKehdq3Z62jVVWH-34" target="KvN9QXKehdq3Z62jVVWH-51">
          <mxGeometry relative="1" as="geometry">
            <Array as="points">
              <mxPoint x="520" y="720" />
              <mxPoint x="520" y="720" />
            </Array>
          </mxGeometry>
        </mxCell>
        <mxCell id="KvN9QXKehdq3Z62jVVWH-34" value="กรอก&amp;nbsp; 1" style="whiteSpace=wrap;html=1;" vertex="1" parent="1">
          <mxGeometry x="448" y="657.94" width="120" height="60" as="geometry" />
        </mxCell>
        <mxCell id="KvN9QXKehdq3Z62jVVWH-35" value="ใช่" style="text;html=1;align=center;verticalAlign=middle;resizable=0;points=[];autosize=1;strokeColor=none;fillColor=none;fontFamily=Helvetica;fontSize=12;fontColor=default;" vertex="1" parent="1">
          <mxGeometry x="495.5" y="516.94" width="40" height="30" as="geometry" />
        </mxCell>
        <mxCell id="KvN9QXKehdq3Z62jVVWH-36" value="" style="edgeStyle=orthogonalEdgeStyle;rounded=0;orthogonalLoop=1;jettySize=auto;html=1;" edge="1" parent="1" source="KvN9QXKehdq3Z62jVVWH-37" target="KvN9QXKehdq3Z62jVVWH-25">
          <mxGeometry relative="1" as="geometry" />
        </mxCell>
        <mxCell id="KvN9QXKehdq3Z62jVVWH-37" value="รับค่า" style="shape=parallelogram;perimeter=parallelogramPerimeter;whiteSpace=wrap;html=1;fixedSize=1;" vertex="1" parent="1">
          <mxGeometry x="345.5" y="436.94" width="120" height="60" as="geometry" />
        </mxCell>
        <mxCell id="KvN9QXKehdq3Z62jVVWH-38" value="กรุณากรอกเฉพาะ 1 หรือ - 1 เท่านั้น" style="whiteSpace=wrap;html=1;" vertex="1" parent="1">
          <mxGeometry x="160" y="429.94" width="120" height="60" as="geometry" />
        </mxCell>
        <mxCell id="KvN9QXKehdq3Z62jVVWH-39" value="" style="edgeStyle=none;orthogonalLoop=1;jettySize=auto;html=1;rounded=0;" edge="1" parent="1">
          <mxGeometry width="100" relative="1" as="geometry">
            <mxPoint x="405.26" y="415.94" as="sourcePoint" />
            <mxPoint x="405.26" y="435.94" as="targetPoint" />
            <Array as="points" />
          </mxGeometry>
        </mxCell>
        <mxCell id="KvN9QXKehdq3Z62jVVWH-40" value="" style="edgeStyle=none;orthogonalLoop=1;jettySize=auto;html=1;rounded=0;fontFamily=Helvetica;fontSize=12;fontColor=default;" edge="1" parent="1">
          <mxGeometry width="100" relative="1" as="geometry">
            <mxPoint x="519.72" y="746" as="sourcePoint" />
            <mxPoint x="519.72" y="776" as="targetPoint" />
            <Array as="points" />
          </mxGeometry>
        </mxCell>
        <mxCell id="KvN9QXKehdq3Z62jVVWH-41" value="" style="edgeStyle=orthogonalEdgeStyle;rounded=0;orthogonalLoop=1;jettySize=auto;html=1;fontFamily=Helvetica;fontSize=12;fontColor=default;" edge="1" parent="1">
          <mxGeometry relative="1" as="geometry">
            <mxPoint x="520.7200000000003" y="835" as="sourcePoint" />
            <mxPoint x="520" y="851" as="targetPoint" />
          </mxGeometry>
        </mxCell>
        <mxCell id="KvN9QXKehdq3Z62jVVWH-42" value="กรุณาป้อนตัวเลข 1 - 100" style="whiteSpace=wrap;html=1;" vertex="1" parent="1">
          <mxGeometry x="453" y="776" width="135.5" height="60" as="geometry" />
        </mxCell>
        <mxCell id="KvN9QXKehdq3Z62jVVWH-43" value="" style="edgeStyle=orthogonalEdgeStyle;rounded=0;orthogonalLoop=1;jettySize=auto;html=1;fontFamily=Helvetica;fontSize=12;fontColor=default;" edge="1" parent="1" source="KvN9QXKehdq3Z62jVVWH-45" target="KvN9QXKehdq3Z62jVVWH-49">
          <mxGeometry relative="1" as="geometry">
            <Array as="points">
              <mxPoint x="520" y="952" />
              <mxPoint x="520" y="952" />
            </Array>
          </mxGeometry>
        </mxCell>
        <mxCell id="KvN9QXKehdq3Z62jVVWH-44" value="" style="edgeStyle=orthogonalEdgeStyle;rounded=0;orthogonalLoop=1;jettySize=auto;html=1;fontFamily=Helvetica;fontSize=12;fontColor=default;entryX=1;entryY=0.5;entryDx=0;entryDy=0;exitX=1;exitY=0.5;exitDx=0;exitDy=0;" edge="1" parent="1">
          <mxGeometry relative="1" as="geometry">
            <mxPoint x="596" y="892" as="sourcePoint" />
            <mxPoint x="528.0000000000027" y="752" as="targetPoint" />
            <Array as="points">
              <mxPoint x="753" y="892" />
              <mxPoint x="753" y="752" />
            </Array>
          </mxGeometry>
        </mxCell>
        <mxCell id="KvN9QXKehdq3Z62jVVWH-45" value="ผู้เล่นป้อนตัวเลขไหม" style="rhombus;whiteSpace=wrap;html=1;" vertex="1" parent="1">
          <mxGeometry x="435" y="852" width="170" height="80" as="geometry" />
        </mxCell>
        <mxCell id="KvN9QXKehdq3Z62jVVWH-46" value="ไม่ ( ผู้เล่นป้อนตัวอักษรอื่น&lt;span style=&quot;background-color: transparent; color: light-dark(rgb(0, 0, 0), rgb(255, 255, 255));&quot;&gt;&amp;nbsp;&lt;/span&gt;&lt;span style=&quot;background-color: transparent; color: light-dark(rgb(0, 0, 0), rgb(255, 255, 255));&quot;&gt;)&lt;/span&gt;" style="text;html=1;align=center;verticalAlign=middle;resizable=0;points=[];autosize=1;strokeColor=none;fillColor=none;fontFamily=Helvetica;fontSize=9;fontColor=default;" vertex="1" parent="1">
          <mxGeometry x="605" y="866" width="130" height="20" as="geometry" />
        </mxCell>
        <mxCell id="KvN9QXKehdq3Z62jVVWH-47" value="ใช่ ( ผู้เล่นป้อนตัวเลข )" style="text;html=1;align=center;verticalAlign=middle;resizable=0;points=[];autosize=1;strokeColor=none;fillColor=none;fontFamily=Helvetica;fontSize=9;fontColor=default;" vertex="1" parent="1">
          <mxGeometry x="520" y="932" width="110" height="20" as="geometry" />
        </mxCell>
        <mxCell id="KvN9QXKehdq3Z62jVVWH-48" value="" style="edgeStyle=orthogonalEdgeStyle;rounded=0;orthogonalLoop=1;jettySize=auto;html=1;fontFamily=Helvetica;fontSize=12;fontColor=default;exitX=1;exitY=0.5;exitDx=0;exitDy=0;" edge="1" parent="1">
          <mxGeometry relative="1" as="geometry">
            <mxPoint x="597" y="1002" as="sourcePoint" />
            <mxPoint x="529" y="744.5" as="targetPoint" />
            <Array as="points">
              <mxPoint x="795" y="1002" />
              <mxPoint x="795" y="744" />
            </Array>
          </mxGeometry>
        </mxCell>
        <mxCell id="KvN9QXKehdq3Z62jVVWH-49" value="&lt;span style=&quot;font-size: 9px; text-wrap-mode: nowrap;&quot;&gt;ตัวเลขอยู่ระหว่าง 1 - 100 ไหม&lt;/span&gt;" style="rhombus;whiteSpace=wrap;html=1;" vertex="1" parent="1">
          <mxGeometry x="435" y="953" width="170" height="80" as="geometry" />
        </mxCell>
        <mxCell id="KvN9QXKehdq3Z62jVVWH-50" value="ไม่ ( ผู้เล่นป้อนตัวเลขที่ &amp;gt; 100 และน้อยกว่า 1 )&amp;nbsp;" style="text;html=1;align=center;verticalAlign=middle;resizable=0;points=[];autosize=1;strokeColor=none;fillColor=none;fontFamily=Helvetica;fontSize=9;fontColor=default;" vertex="1" parent="1">
          <mxGeometry x="601" y="976" width="200" height="20" as="geometry" />
        </mxCell>
        <mxCell id="KvN9QXKehdq3Z62jVVWH-51" value="" style="ellipse;whiteSpace=wrap;html=1;aspect=fixed;strokeColor=default;align=center;verticalAlign=middle;fontFamily=Helvetica;fontSize=12;fontColor=default;fillColor=default;" vertex="1" parent="1">
          <mxGeometry x="509" y="736" width="22" height="22" as="geometry" />
        </mxCell>
        <mxCell id="KvN9QXKehdq3Z62jVVWH-52" value="" style="edgeStyle=orthogonalEdgeStyle;rounded=0;orthogonalLoop=1;jettySize=auto;html=1;" edge="1" parent="1">
          <mxGeometry relative="1" as="geometry">
            <mxPoint x="232.02380952380952" y="524.94" as="sourcePoint" />
            <mxPoint x="230.02380952380952" y="489.94" as="targetPoint" />
          </mxGeometry>
        </mxCell>
        <mxCell id="KvN9QXKehdq3Z62jVVWH-53" value="กรอกอย่างอื่น&amp;nbsp;&lt;div&gt;เช่น เลขอื่นหรือตัวอักษร&lt;/div&gt;" style="whiteSpace=wrap;html=1;" vertex="1" parent="1">
          <mxGeometry x="162" y="524.94" width="120" height="60" as="geometry" />
        </mxCell>
        <mxCell id="KvN9QXKehdq3Z62jVVWH-54" value="&lt;span style=&quot;color: rgb(0, 0, 0); font-family: Helvetica; font-size: 9px; font-style: normal; font-variant-ligatures: normal; font-variant-caps: normal; font-weight: 400; letter-spacing: normal; orphans: 2; text-align: center; text-indent: 0px; text-transform: none; widows: 2; word-spacing: 0px; -webkit-text-stroke-width: 0px; white-space: nowrap; text-decoration-thickness: initial; text-decoration-style: initial; text-decoration-color: initial; float: none; display: inline !important;&quot;&gt;ใช่ ( ผู้เล่นป้อนตัวเลขระหว่าง 1 -100 )&lt;/span&gt;" style="text;whiteSpace=wrap;html=1;fontFamily=Helvetica;fontSize=12;fontColor=default;" vertex="1" parent="1">
          <mxGeometry x="534" y="1021" width="116" height="40" as="geometry" />
        </mxCell>
        <mxCell id="KvN9QXKehdq3Z62jVVWH-55" value="" style="endArrow=classic;html=1;rounded=0;" edge="1" parent="1">
          <mxGeometry width="50" height="50" relative="1" as="geometry">
            <mxPoint x="520.5999999999999" y="1093" as="sourcePoint" />
            <mxPoint x="521.0999999999999" y="1123" as="targetPoint" />
          </mxGeometry>
        </mxCell>
        <mxCell id="KvN9QXKehdq3Z62jVVWH-56" value="" style="verticalLabelPosition=bottom;verticalAlign=top;html=1;shape=offPageConnector;rounded=0;size=0.5;" vertex="1" parent="1">
          <mxGeometry x="506" y="1123" width="30" height="30" as="geometry" />
        </mxCell>
        <mxCell id="KvN9QXKehdq3Z62jVVWH-57" value="ก" style="text;html=1;align=center;verticalAlign=middle;resizable=0;points=[];autosize=1;strokeColor=none;fillColor=none;fontFamily=Sarabun;fontSource=https%3A%2F%2Ffonts.googleapis.com%2Fcss%3Ffamily%3DSarabun;" vertex="1" parent="1">
          <mxGeometry x="505" y="1118" width="30" height="30" as="geometry" />
        </mxCell>
        <mxCell id="KvN9QXKehdq3Z62jVVWH-58" value="สุ่มตัวเลขระหว่าง 1 - 100&amp;nbsp;&lt;div&gt;กำหนดให้ min = 1&amp;nbsp;&lt;/div&gt;&lt;div&gt;กำหนดให้ max = 100&lt;/div&gt;" style="whiteSpace=wrap;html=1;" vertex="1" parent="1">
          <mxGeometry x="415" y="1045" width="210" height="60" as="geometry" />
        </mxCell>
        <mxCell id="KvN9QXKehdq3Z62jVVWH-59" value="รับค่าตัวเลขที่ผู้เล่นกรอก" style="shape=parallelogram;perimeter=parallelogramPerimeter;whiteSpace=wrap;html=1;fixedSize=1;strokeColor=default;align=center;verticalAlign=middle;fontFamily=Helvetica;fontSize=12;fontColor=default;fillColor=default;" vertex="1" parent="1">
          <mxGeometry x="421" y="1273" width="190" height="37" as="geometry" />
        </mxCell>
        <mxCell id="KvN9QXKehdq3Z62jVVWH-60" value="" style="endArrow=classic;html=1;rounded=0;" edge="1" parent="1">
          <mxGeometry width="50" height="50" relative="1" as="geometry">
            <mxPoint x="520" y="1196" as="sourcePoint" />
            <mxPoint x="519.9999999999999" y="1239" as="targetPoint" />
          </mxGeometry>
        </mxCell>
        <mxCell id="KvN9QXKehdq3Z62jVVWH-61" value="" style="verticalLabelPosition=bottom;verticalAlign=top;html=1;shape=offPageConnector;rounded=0;size=0.5;" vertex="1" parent="1">
          <mxGeometry x="505" y="1196" width="30" height="30" as="geometry" />
        </mxCell>
        <mxCell id="KvN9QXKehdq3Z62jVVWH-62" value="ก" style="text;html=1;align=center;verticalAlign=middle;resizable=0;points=[];autosize=1;strokeColor=none;fillColor=none;fontFamily=Sarabun;fontSource=https%3A%2F%2Ffonts.googleapis.com%2Fcss%3Ffamily%3DSarabun;" vertex="1" parent="1">
          <mxGeometry x="505" y="1191" width="30" height="30" as="geometry" />
        </mxCell>
        <mxCell id="KvN9QXKehdq3Z62jVVWH-63" value="" style="edgeStyle=orthogonalEdgeStyle;rounded=0;orthogonalLoop=1;jettySize=auto;html=1;" edge="1" parent="1">
          <mxGeometry relative="1" as="geometry">
            <mxPoint x="520" y="1310.8199999999997" as="sourcePoint" />
            <mxPoint x="520" y="1335" as="targetPoint" />
          </mxGeometry>
        </mxCell>
        <mxCell id="KvN9QXKehdq3Z62jVVWH-64" value="" style="edgeStyle=orthogonalEdgeStyle;rounded=0;orthogonalLoop=1;jettySize=auto;html=1;entryX=0.531;entryY=0.008;entryDx=0;entryDy=0;entryPerimeter=0;" edge="1" parent="1" source="KvN9QXKehdq3Z62jVVWH-65" target="KvN9QXKehdq3Z62jVVWH-59">
          <mxGeometry relative="1" as="geometry" />
        </mxCell>
        <mxCell id="KvN9QXKehdq3Z62jVVWH-65" value="" style="ellipse;whiteSpace=wrap;html=1;aspect=fixed;" vertex="1" parent="1">
          <mxGeometry x="514.5900000000001" y="1240" width="12.82" height="12.82" as="geometry" />
        </mxCell>
        <mxCell id="KvN9QXKehdq3Z62jVVWH-66" value="" style="edgeStyle=orthogonalEdgeStyle;rounded=0;orthogonalLoop=1;jettySize=auto;html=1;strokeColor=#FF0009;" edge="1" parent="1">
          <mxGeometry relative="1" as="geometry">
            <mxPoint x="986.5" y="686.9166666666667" as="sourcePoint" />
            <mxPoint x="478" y="2159" as="targetPoint" />
            <Array as="points">
              <mxPoint x="1008" y="687" />
              <mxPoint x="1008" y="2159" />
            </Array>
          </mxGeometry>
        </mxCell>
        <mxCell id="KvN9QXKehdq3Z62jVVWH-67" value="แสดงข้อความบอกลา" style="whiteSpace=wrap;html=1;" vertex="1" parent="1">
          <mxGeometry x="868.5" y="657.94" width="120" height="60" as="geometry" />
        </mxCell>
        <mxCell id="KvN9QXKehdq3Z62jVVWH-68" value="" style="edgeStyle=orthogonalEdgeStyle;rounded=0;orthogonalLoop=1;jettySize=auto;html=1;" edge="1" parent="1" source="KvN9QXKehdq3Z62jVVWH-69" target="KvN9QXKehdq3Z62jVVWH-22">
          <mxGeometry relative="1" as="geometry" />
        </mxCell>
        <mxCell id="KvN9QXKehdq3Z62jVVWH-69" value="" style="ellipse;whiteSpace=wrap;html=1;" vertex="1" parent="1">
          <mxGeometry x="457.40999999999997" y="2148" width="20" height="20" as="geometry" />
        </mxCell>
        <mxCell id="KvN9QXKehdq3Z62jVVWH-70" value="" style="edgeStyle=orthogonalEdgeStyle;rounded=0;orthogonalLoop=1;jettySize=auto;html=1;fontFamily=Helvetica;fontSize=12;fontColor=default;entryX=1.014;entryY=0.489;entryDx=0;entryDy=0;exitX=0;exitY=0.5;exitDx=0;exitDy=0;entryPerimeter=0;" edge="1" parent="1" target="KvN9QXKehdq3Z62jVVWH-73">
          <mxGeometry relative="1" as="geometry">
            <mxPoint x="439.25" y="1377" as="sourcePoint" />
            <mxPoint x="371.75" y="1379" as="targetPoint" />
            <Array as="points">
              <mxPoint x="372" y="1377" />
            </Array>
          </mxGeometry>
        </mxCell>
        <mxCell id="KvN9QXKehdq3Z62jVVWH-71" value="" style="edgeStyle=orthogonalEdgeStyle;rounded=0;orthogonalLoop=1;jettySize=auto;html=1;" edge="1" parent="1" source="KvN9QXKehdq3Z62jVVWH-72" target="KvN9QXKehdq3Z62jVVWH-76">
          <mxGeometry relative="1" as="geometry" />
        </mxCell>
        <mxCell id="KvN9QXKehdq3Z62jVVWH-72" value="ตัวเลขที่กรอก&amp;nbsp; == ตัวเลขที่สุ่มไหม" style="rhombus;whiteSpace=wrap;html=1;" vertex="1" parent="1">
          <mxGeometry x="420" y="1336" width="200" height="80" as="geometry" />
        </mxCell>
        <mxCell id="KvN9QXKehdq3Z62jVVWH-73" value="&lt;font style=&quot;font-size: 9px;&quot;&gt;คะแนน - 10&lt;/font&gt;" style="whiteSpace=wrap;html=1;" vertex="1" parent="1">
          <mxGeometry x="267" y="1360" width="87.5" height="36" as="geometry" />
        </mxCell>
        <mxCell id="KvN9QXKehdq3Z62jVVWH-74" value="ใช่" style="text;html=1;align=center;verticalAlign=middle;resizable=0;points=[];autosize=1;strokeColor=none;fillColor=none;fontFamily=Helvetica;fontSize=12;fontColor=default;" vertex="1" parent="1">
          <mxGeometry x="611" y="1352" width="40" height="30" as="geometry" />
        </mxCell>
        <mxCell id="KvN9QXKehdq3Z62jVVWH-75" value="" style="edgeStyle=orthogonalEdgeStyle;rounded=0;orthogonalLoop=1;jettySize=auto;html=1;" edge="1" parent="1" source="KvN9QXKehdq3Z62jVVWH-76" target="KvN9QXKehdq3Z62jVVWH-78">
          <mxGeometry relative="1" as="geometry" />
        </mxCell>
        <mxCell id="KvN9QXKehdq3Z62jVVWH-76" value="แสดงความยินดีด้วยคุณทายตัวเลขถูก" style="rounded=0;whiteSpace=wrap;html=1;strokeColor=default;align=center;verticalAlign=middle;fontFamily=Helvetica;fontSize=12;fontColor=default;fillColor=default;" vertex="1" parent="1">
          <mxGeometry x="654" y="1349" width="150" height="54" as="geometry" />
        </mxCell>
        <mxCell id="KvN9QXKehdq3Z62jVVWH-77" value="" style="edgeStyle=orthogonalEdgeStyle;rounded=0;orthogonalLoop=1;jettySize=auto;html=1;" edge="1" parent="1" source="KvN9QXKehdq3Z62jVVWH-78" target="KvN9QXKehdq3Z62jVVWH-80">
          <mxGeometry relative="1" as="geometry" />
        </mxCell>
        <mxCell id="KvN9QXKehdq3Z62jVVWH-78" value="แสดงเลขที่ถูกต้อง" style="whiteSpace=wrap;html=1;rounded=0;" vertex="1" parent="1">
          <mxGeometry x="669" y="1420" width="120" height="60" as="geometry" />
        </mxCell>
        <mxCell id="KvN9QXKehdq3Z62jVVWH-79" value="" style="edgeStyle=orthogonalEdgeStyle;rounded=0;orthogonalLoop=1;jettySize=auto;html=1;" edge="1" parent="1">
          <mxGeometry relative="1" as="geometry">
            <mxPoint x="782.5" y="1536.0185714285715" as="sourcePoint" />
            <mxPoint x="419" y="1520" as="targetPoint" />
            <Array as="points">
              <mxPoint x="524" y="1535.99" />
            </Array>
          </mxGeometry>
        </mxCell>
        <mxCell id="KvN9QXKehdq3Z62jVVWH-80" value="แสดงคะแนนที่ได้" style="whiteSpace=wrap;html=1;rounded=0;" vertex="1" parent="1">
          <mxGeometry x="668.5" y="1500" width="120" height="60" as="geometry" />
        </mxCell>
        <mxCell id="KvN9QXKehdq3Z62jVVWH-81" value="&lt;span style=&quot;font-size: 9px;&quot;&gt;เลขนี้อยู่ระหว่าง&amp;nbsp;&lt;/span&gt;&lt;div&gt;&lt;span style=&quot;font-size: 9px;&quot;&gt;min - max&amp;nbsp;&lt;/span&gt;&lt;/div&gt;" style="whiteSpace=wrap;html=1;" vertex="1" parent="1">
          <mxGeometry x="175" y="1361" width="75" height="32" as="geometry" />
        </mxCell>
        <mxCell id="KvN9QXKehdq3Z62jVVWH-82" value="" style="edgeStyle=orthogonalEdgeStyle;rounded=0;orthogonalLoop=1;jettySize=auto;html=1;" edge="1" parent="1" source="KvN9QXKehdq3Z62jVVWH-84" target="KvN9QXKehdq3Z62jVVWH-86">
          <mxGeometry relative="1" as="geometry" />
        </mxCell>
        <mxCell id="KvN9QXKehdq3Z62jVVWH-83" value="" style="edgeStyle=orthogonalEdgeStyle;rounded=0;orthogonalLoop=1;jettySize=auto;html=1;exitX=0;exitY=0.5;exitDx=0;exitDy=0;entryX=0;entryY=1;entryDx=0;entryDy=0;" edge="1" parent="1">
          <mxGeometry relative="1" as="geometry">
            <mxPoint x="-9" y="1525" as="sourcePoint" />
            <mxPoint x="516.4674455326142" y="1246.9425544673863" as="targetPoint" />
            <Array as="points">
              <mxPoint x="-250" y="1525" />
              <mxPoint x="-250" y="1247" />
            </Array>
          </mxGeometry>
        </mxCell>
        <mxCell id="KvN9QXKehdq3Z62jVVWH-84" value="คะแนนหมดไหม" style="rhombus;whiteSpace=wrap;html=1;fontSize=11;" vertex="1" parent="1">
          <mxGeometry x="-97" y="1485" width="160" height="80" as="geometry" />
        </mxCell>
        <mxCell id="KvN9QXKehdq3Z62jVVWH-85" value="" style="edgeStyle=orthogonalEdgeStyle;rounded=0;orthogonalLoop=1;jettySize=auto;html=1;" edge="1" parent="1" source="KvN9QXKehdq3Z62jVVWH-86" target="KvN9QXKehdq3Z62jVVWH-99">
          <mxGeometry relative="1" as="geometry" />
        </mxCell>
        <mxCell id="KvN9QXKehdq3Z62jVVWH-86" value="แจ้งผู้เล่นว่าคะแนนหมด" style="whiteSpace=wrap;html=1;fontSize=11;" vertex="1" parent="1">
          <mxGeometry x="-76" y="1595" width="118" height="30" as="geometry" />
        </mxCell>
        <mxCell id="KvN9QXKehdq3Z62jVVWH-87" value="" style="edgeStyle=orthogonalEdgeStyle;rounded=0;orthogonalLoop=1;jettySize=auto;html=1;" edge="1" parent="1" source="KvN9QXKehdq3Z62jVVWH-89" target="KvN9QXKehdq3Z62jVVWH-93">
          <mxGeometry relative="1" as="geometry" />
        </mxCell>
        <mxCell id="KvN9QXKehdq3Z62jVVWH-88" value="" style="edgeStyle=orthogonalEdgeStyle;rounded=0;orthogonalLoop=1;jettySize=auto;html=1;entryX=0.583;entryY=0;entryDx=0;entryDy=0;entryPerimeter=0;" edge="1" parent="1" source="KvN9QXKehdq3Z62jVVWH-89" target="KvN9QXKehdq3Z62jVVWH-105">
          <mxGeometry relative="1" as="geometry">
            <mxPoint x="704" y="1601.9999999999998" as="targetPoint" />
          </mxGeometry>
        </mxCell>
        <mxCell id="KvN9QXKehdq3Z62jVVWH-89" value="สอบถามผู้เล่นว่าต้องการที่จะเล่นอีกไหม" style="rhombus;whiteSpace=wrap;html=1;fontSize=11;" vertex="1" parent="1">
          <mxGeometry x="306" y="1562" width="212" height="80" as="geometry" />
        </mxCell>
        <mxCell id="KvN9QXKehdq3Z62jVVWH-90" value="ใช่" style="text;html=1;align=center;verticalAlign=middle;resizable=0;points=[];autosize=1;strokeColor=none;fillColor=none;" vertex="1" parent="1">
          <mxGeometry y="1565" width="40" height="30" as="geometry" />
        </mxCell>
        <mxCell id="KvN9QXKehdq3Z62jVVWH-91" value="ไม่" style="text;html=1;align=center;verticalAlign=middle;resizable=0;points=[];autosize=1;strokeColor=none;fillColor=none;" vertex="1" parent="1">
          <mxGeometry x="-100" y="1480" width="40" height="30" as="geometry" />
        </mxCell>
        <mxCell id="KvN9QXKehdq3Z62jVVWH-92" value="ไม่ต้องการ" style="text;html=1;align=center;verticalAlign=middle;resizable=0;points=[];autosize=1;strokeColor=none;fillColor=none;" vertex="1" parent="1">
          <mxGeometry x="520" y="1642" width="80" height="30" as="geometry" />
        </mxCell>
        <mxCell id="KvN9QXKehdq3Z62jVVWH-93" value="กรอก 1" style="whiteSpace=wrap;html=1;fontSize=11;" vertex="1" parent="1">
          <mxGeometry x="352" y="1680" width="120" height="50" as="geometry" />
        </mxCell>
        <mxCell id="KvN9QXKehdq3Z62jVVWH-94" value="ต้องการ" style="text;html=1;align=center;verticalAlign=middle;resizable=0;points=[];autosize=1;strokeColor=none;fillColor=none;" vertex="1" parent="1">
          <mxGeometry x="345.5" y="1642" width="60" height="30" as="geometry" />
        </mxCell>
        <mxCell id="KvN9QXKehdq3Z62jVVWH-95" value="ไม่" style="text;html=1;align=center;verticalAlign=middle;resizable=0;points=[];autosize=1;strokeColor=none;fillColor=none;" vertex="1" parent="1">
          <mxGeometry x="375.5" y="1352" width="40" height="30" as="geometry" />
        </mxCell>
        <mxCell id="KvN9QXKehdq3Z62jVVWH-96" value="" style="edgeStyle=orthogonalEdgeStyle;rounded=0;orthogonalLoop=1;jettySize=auto;html=1;" edge="1" parent="1" source="KvN9QXKehdq3Z62jVVWH-97" target="KvN9QXKehdq3Z62jVVWH-84">
          <mxGeometry relative="1" as="geometry" />
        </mxCell>
        <mxCell id="KvN9QXKehdq3Z62jVVWH-97" value="แสดงคะแนนที่เหลือ" style="whiteSpace=wrap;html=1;" vertex="1" parent="1">
          <mxGeometry x="-60" y="1356" width="86" height="40" as="geometry" />
        </mxCell>
        <mxCell id="KvN9QXKehdq3Z62jVVWH-98" value="" style="edgeStyle=orthogonalEdgeStyle;rounded=0;orthogonalLoop=1;jettySize=auto;html=1;entryX=-0.079;entryY=0.314;entryDx=0;entryDy=0;entryPerimeter=0;" edge="1" parent="1">
          <mxGeometry relative="1" as="geometry">
            <mxPoint x="29.5" y="1720" as="sourcePoint" />
            <mxPoint x="402.4200000000001" y="1521.28" as="targetPoint" />
            <Array as="points">
              <mxPoint x="227" y="1720" />
              <mxPoint x="227" y="1550" />
              <mxPoint x="303" y="1550" />
              <mxPoint x="303" y="1521" />
            </Array>
          </mxGeometry>
        </mxCell>
        <mxCell id="KvN9QXKehdq3Z62jVVWH-99" value="แสดงข้อความจบเกม" style="whiteSpace=wrap;html=1;fontSize=11;" vertex="1" parent="1">
          <mxGeometry x="-68.5" y="1642" width="103" height="38" as="geometry" />
        </mxCell>
        <mxCell id="KvN9QXKehdq3Z62jVVWH-100" value="" style="edgeStyle=orthogonalEdgeStyle;rounded=0;orthogonalLoop=1;jettySize=auto;html=1;" edge="1" parent="1">
          <mxGeometry relative="1" as="geometry">
            <mxPoint x="-17.200000000000003" y="1680" as="sourcePoint" />
            <mxPoint x="-17.200000000000003" y="1697" as="targetPoint" />
          </mxGeometry>
        </mxCell>
        <mxCell id="KvN9QXKehdq3Z62jVVWH-101" value="แสดงคำตอบที่ถูก" style="whiteSpace=wrap;html=1;fontSize=11;" vertex="1" parent="1">
          <mxGeometry x="-68.5" y="1697" width="103" height="38" as="geometry" />
        </mxCell>
        <mxCell id="KvN9QXKehdq3Z62jVVWH-102" value="" style="edgeStyle=orthogonalEdgeStyle;rounded=0;orthogonalLoop=1;jettySize=auto;html=1;exitX=0.688;exitY=0.995;exitDx=0;exitDy=0;exitPerimeter=0;" edge="1" parent="1">
          <mxGeometry relative="1" as="geometry">
            <mxPoint x="411.99799999999976" y="98.80000000000001" as="sourcePoint" />
            <mxPoint x="414.43" y="120.00000000000006" as="targetPoint" />
          </mxGeometry>
        </mxCell>
        <mxCell id="KvN9QXKehdq3Z62jVVWH-103" value="" style="ellipse;whiteSpace=wrap;html=1;" vertex="1" parent="1">
          <mxGeometry x="409" y="93" width="10" height="10" as="geometry" />
        </mxCell>
        <mxCell id="KvN9QXKehdq3Z62jVVWH-104" value="" style="edgeStyle=orthogonalEdgeStyle;rounded=0;orthogonalLoop=1;jettySize=auto;html=1;entryX=1;entryY=0.5;entryDx=0;entryDy=0;" edge="1" parent="1" source="KvN9QXKehdq3Z62jVVWH-105" target="KvN9QXKehdq3Z62jVVWH-109">
          <mxGeometry relative="1" as="geometry">
            <mxPoint x="530" y="1780" as="targetPoint" />
            <Array as="points">
              <mxPoint x="590" y="1780" />
            </Array>
          </mxGeometry>
        </mxCell>
        <mxCell id="KvN9QXKehdq3Z62jVVWH-105" value="กรอก - 1" style="whiteSpace=wrap;html=1;fontSize=11;" vertex="1" parent="1">
          <mxGeometry x="530" y="1680" width="120" height="50" as="geometry" />
        </mxCell>
        <mxCell id="KvN9QXKehdq3Z62jVVWH-106" value="" style="edgeStyle=orthogonalEdgeStyle;rounded=0;orthogonalLoop=1;jettySize=auto;html=1;" edge="1" parent="1" source="KvN9QXKehdq3Z62jVVWH-107" target="KvN9QXKehdq3Z62jVVWH-97">
          <mxGeometry relative="1" as="geometry" />
        </mxCell>
        <mxCell id="KvN9QXKehdq3Z62jVVWH-107" value="&lt;span style=&quot;font-size: 9px;&quot;&gt;เลขนี้มากกว่าหรือน้อยกว่าเลขที่กรอก&lt;/span&gt;" style="whiteSpace=wrap;html=1;" vertex="1" parent="1">
          <mxGeometry x="60" y="1360" width="96" height="32" as="geometry" />
        </mxCell>
        <mxCell id="KvN9QXKehdq3Z62jVVWH-108" value="" style="edgeStyle=orthogonalEdgeStyle;rounded=0;orthogonalLoop=1;jettySize=auto;html=1;" edge="1" parent="1">
          <mxGeometry relative="1" as="geometry">
            <mxPoint x="505" y="1780" as="sourcePoint" />
            <mxPoint x="504.9999999999998" y="1808.9999999999998" as="targetPoint" />
            <Array as="points">
              <mxPoint x="505" y="1780" />
              <mxPoint x="505" y="1780" />
            </Array>
          </mxGeometry>
        </mxCell>
        <mxCell id="KvN9QXKehdq3Z62jVVWH-109" value="" style="ellipse;whiteSpace=wrap;html=1;" vertex="1" parent="1">
          <mxGeometry x="495" y="1770" width="20" height="20" as="geometry" />
        </mxCell>
        <mxCell id="KvN9QXKehdq3Z62jVVWH-110" value="" style="edgeStyle=orthogonalEdgeStyle;rounded=0;orthogonalLoop=1;jettySize=auto;html=1;entryX=0;entryY=0.5;entryDx=0;entryDy=0;" edge="1" parent="1">
          <mxGeometry relative="1" as="geometry">
            <mxPoint x="410.5" y="1729" as="sourcePoint" />
            <mxPoint x="495" y="1780" as="targetPoint" />
            <Array as="points">
              <mxPoint x="411" y="1779" />
              <mxPoint x="493" y="1779" />
            </Array>
          </mxGeometry>
        </mxCell>
        <mxCell id="KvN9QXKehdq3Z62jVVWH-111" value="" style="edgeStyle=orthogonalEdgeStyle;rounded=0;orthogonalLoop=1;jettySize=auto;html=1;fontFamily=Helvetica;fontSize=12;fontColor=default;" edge="1" parent="1" source="KvN9QXKehdq3Z62jVVWH-113">
          <mxGeometry relative="1" as="geometry">
            <mxPoint x="384" y="1968.0526315789475" as="targetPoint" />
          </mxGeometry>
        </mxCell>
        <mxCell id="KvN9QXKehdq3Z62jVVWH-112" value="" style="edgeStyle=orthogonalEdgeStyle;rounded=0;orthogonalLoop=1;jettySize=auto;html=1;fontFamily=Helvetica;fontSize=12;fontColor=default;entryX=0.5;entryY=0;entryDx=0;entryDy=0;exitX=1;exitY=0.5;exitDx=0;exitDy=0;" edge="1" parent="1" source="KvN9QXKehdq3Z62jVVWH-113" target="KvN9QXKehdq3Z62jVVWH-118">
          <mxGeometry relative="1" as="geometry">
            <mxPoint x="625.75" y="1968" as="targetPoint" />
          </mxGeometry>
        </mxCell>
        <mxCell id="KvN9QXKehdq3Z62jVVWH-113" value="ผู้เล่นกรอก 1 หรือ - 1 ใช่ไหม" style="rhombus;whiteSpace=wrap;html=1;" vertex="1" parent="1">
          <mxGeometry x="416.25" y="1929" width="180" height="80" as="geometry" />
        </mxCell>
        <mxCell id="KvN9QXKehdq3Z62jVVWH-114" value="" style="edgeStyle=orthogonalEdgeStyle;rounded=0;orthogonalLoop=1;jettySize=auto;html=1;" edge="1" parent="1" source="KvN9QXKehdq3Z62jVVWH-126">
          <mxGeometry relative="1" as="geometry">
            <mxPoint x="331.75" y="2039" as="sourcePoint" />
            <mxPoint x="496.25" y="1820" as="targetPoint" />
            <Array as="points">
              <mxPoint x="332.25" y="1820" />
            </Array>
          </mxGeometry>
        </mxCell>
        <mxCell id="KvN9QXKehdq3Z62jVVWH-115" value="ไม่&amp;nbsp;" style="text;html=1;align=center;verticalAlign=middle;resizable=0;points=[];autosize=1;strokeColor=none;fillColor=none;fontFamily=Helvetica;fontSize=12;fontColor=default;" vertex="1" parent="1">
          <mxGeometry x="392.25" y="1938" width="40" height="30" as="geometry" />
        </mxCell>
        <mxCell id="KvN9QXKehdq3Z62jVVWH-116" value="" style="edgeStyle=orthogonalEdgeStyle;rounded=0;orthogonalLoop=1;jettySize=auto;html=1;fontFamily=Helvetica;fontSize=12;fontColor=default;" edge="1" parent="1">
          <mxGeometry relative="1" as="geometry">
            <Array as="points">
              <mxPoint x="838.25" y="2031" />
            </Array>
            <mxPoint x="785.8676470588225" y="2031.0588235294117" as="sourcePoint" />
            <mxPoint x="838.25" y="2069" as="targetPoint" />
          </mxGeometry>
        </mxCell>
        <mxCell id="KvN9QXKehdq3Z62jVVWH-117" value="" style="edgeStyle=orthogonalEdgeStyle;rounded=0;orthogonalLoop=1;jettySize=auto;html=1;fontFamily=Helvetica;fontSize=12;fontColor=default;" edge="1" parent="1">
          <mxGeometry relative="1" as="geometry">
            <Array as="points">
              <mxPoint x="606.25" y="2032" />
            </Array>
            <mxPoint x="659.632352941177" y="2032.0588235294117" as="sourcePoint" />
            <mxPoint x="606.25" y="2071" as="targetPoint" />
          </mxGeometry>
        </mxCell>
        <mxCell id="KvN9QXKehdq3Z62jVVWH-118" value="กรอก 1 หรือ - 1&amp;nbsp;" style="rhombus;whiteSpace=wrap;html=1;" vertex="1" parent="1">
          <mxGeometry x="631.75" y="1992" width="180" height="80" as="geometry" />
        </mxCell>
        <mxCell id="KvN9QXKehdq3Z62jVVWH-119" value="" style="edgeStyle=orthogonalEdgeStyle;rounded=0;orthogonalLoop=1;jettySize=auto;html=1;strokeColor=#0000FF;" edge="1" parent="1">
          <mxGeometry relative="1" as="geometry">
            <mxPoint x="861.25" y="2118.0588235294117" as="sourcePoint" />
            <mxPoint x="417" y="98" as="targetPoint" />
            <Array as="points">
              <mxPoint x="861" y="2100" />
              <mxPoint x="1047" y="2100" />
              <mxPoint x="1047" y="98" />
            </Array>
          </mxGeometry>
        </mxCell>
        <mxCell id="KvN9QXKehdq3Z62jVVWH-120" value="กรอก 1&amp;nbsp;" style="whiteSpace=wrap;html=1;" vertex="1" parent="1">
          <mxGeometry x="814.25" y="2070" width="120" height="60" as="geometry" />
        </mxCell>
        <mxCell id="KvN9QXKehdq3Z62jVVWH-121" value="" style="edgeStyle=orthogonalEdgeStyle;rounded=0;orthogonalLoop=1;jettySize=auto;html=1;" edge="1" parent="1">
          <mxGeometry relative="1" as="geometry">
            <mxPoint x="468" y="2148" as="targetPoint" />
            <mxPoint x="546.75" y="2108" as="sourcePoint" />
            <Array as="points">
              <mxPoint x="468" y="2108" />
            </Array>
          </mxGeometry>
        </mxCell>
        <mxCell id="KvN9QXKehdq3Z62jVVWH-122" value="กรอก&amp;nbsp; - 1" style="whiteSpace=wrap;html=1;" vertex="1" parent="1">
          <mxGeometry x="548.75" y="2070" width="120" height="60" as="geometry" />
        </mxCell>
        <mxCell id="KvN9QXKehdq3Z62jVVWH-123" value="ใช่" style="text;html=1;align=center;verticalAlign=middle;resizable=0;points=[];autosize=1;strokeColor=none;fillColor=none;fontFamily=Helvetica;fontSize=12;fontColor=default;" vertex="1" parent="1">
          <mxGeometry x="596.25" y="1929" width="40" height="30" as="geometry" />
        </mxCell>
        <mxCell id="KvN9QXKehdq3Z62jVVWH-124" value="" style="edgeStyle=orthogonalEdgeStyle;rounded=0;orthogonalLoop=1;jettySize=auto;html=1;" edge="1" parent="1" source="KvN9QXKehdq3Z62jVVWH-125" target="KvN9QXKehdq3Z62jVVWH-113">
          <mxGeometry relative="1" as="geometry" />
        </mxCell>
        <mxCell id="KvN9QXKehdq3Z62jVVWH-125" value="รับค่า" style="shape=parallelogram;perimeter=parallelogramPerimeter;whiteSpace=wrap;html=1;fixedSize=1;" vertex="1" parent="1">
          <mxGeometry x="446.25" y="1849" width="120" height="60" as="geometry" />
        </mxCell>
        <mxCell id="KvN9QXKehdq3Z62jVVWH-126" value="กรุณากรอกเฉพาะ 1 หรือ - 1 เท่านั้น" style="whiteSpace=wrap;html=1;" vertex="1" parent="1">
          <mxGeometry x="260.75" y="1842" width="120" height="60" as="geometry" />
        </mxCell>
        <mxCell id="KvN9QXKehdq3Z62jVVWH-127" value="" style="edgeStyle=orthogonalEdgeStyle;rounded=0;orthogonalLoop=1;jettySize=auto;html=1;" edge="1" parent="1">
          <mxGeometry relative="1" as="geometry">
            <mxPoint x="332.77380952380963" y="1937" as="sourcePoint" />
            <mxPoint x="330.77380952380963" y="1902" as="targetPoint" />
          </mxGeometry>
        </mxCell>
        <mxCell id="KvN9QXKehdq3Z62jVVWH-128" value="กรอกอย่างอื่น เช่น เลขอื่นหรือตัวอักษร" style="whiteSpace=wrap;html=1;" vertex="1" parent="1">
          <mxGeometry x="262.75" y="1937" width="120" height="60" as="geometry" />
        </mxCell>
        <mxCell id="KvN9QXKehdq3Z62jVVWH-129" value="" style="ellipse;whiteSpace=wrap;html=1;" vertex="1" parent="1">
          <mxGeometry x="494.59" y="1810" width="20" height="20" as="geometry" />
        </mxCell>
        <mxCell id="KvN9QXKehdq3Z62jVVWH-130" value="" style="ellipse;whiteSpace=wrap;html=1;" vertex="1" parent="1">
          <mxGeometry x="401" y="1515" width="20" height="20" as="geometry" />
        </mxCell>
      </root>
    </mxGraphModel>
  </diagram>
</mxfile>
